# WaveFront *.obj file (generated by CINEMA 4D)

v 0.00801603123546 -1.0500875711441 0.14688405394554
v -0.00801603123546 -1.0500875711441 0.14688405394554
v -0.00801603123546 -1.0500875711441 0.13085202872753
v 0.00801603123546 -1.0500875711441 0.13085202872753
v 0.00801603123546 0 0.42296141386032
v 0.00801603123546 1.0500875711441 0.14688405394554
v -0.00801603123546 1.0500875711441 0.14688405394554
v -0.00801603123546 0 0.42296141386032
v 0.00801603123546 0 0.40692934393883
v -0.00801603123546 1.0500875711441 0.13085202872753
v -0.00801603123546 0 0.40692934393883
v 0.00801603123546 1.0500875711441 0.13085202872753
# 12 vertices

vn 0 1 0
vn 0 1 0
vn -1 0 0
vn 0 1 0
vn 0 0 -1
vn 0 -0.25423178076744 -0.96714329719543
vn 0 1 0
vn 0 0 1
vn 0 0.25423178076744 0.96714329719543
vn 0 1 0
vn 1 0 0
vn 0 1 0
vn 0 -1 0
vn 0 1 0
vn 0 1 0
vn 0 0.25423178076744 -0.96714329719543
vn 0 1 0
vn 0 -0.25423178076744 0.96714329719543
vn 0 1 0
vn 0 1 0
vn 0 1 0
vn 0 1 0
vn 0 1 0
vn 0 1 0
vn 0 1 0
vn 0 1 0
vn 0 1 0
vn 0 1 0
vn 0 0 0
# 29 normals

vt 0.8692626953125 0.99996948242188 0
vt 0.87266540527344 0.99996948242188 0
vt 0 1 0
vt 0.8692626953125 0 0
vt 0.87266540527344 0 0
vt 0.87263488769531 0 0
vt 0.87263488769531 0.99996948242188 0
vt 0.86927795410156 0 0
vt 0.86927795410156 0.99996948242188 0
# 9 texture coordinates

o Bow2
usemtl Bowmat
f 7/2/1 6/2/1 10/1/1
f 8/5/3 7/2/3 11/4/3
f 11/4/5 10/1/6 9/4/5
f 5/6/8 6/7/9 8/6/8
f 9/4/11 12/1/11 5/5/11
f 4/1/13 1/2/13 3/1/13
f 3/1/3 2/2/3 11/4/3
f 4/9/16 3/9/16 9/8/5
f 2/7/18 1/7/18 8/6/8
f 1/2/11 4/1/11 5/5/11
f 4/1/11 9/4/11 5/5/11
f 1/7/18 5/6/8 8/6/8
f 3/9/16 11/8/5 9/8/5
f 2/2/3 8/5/3 11/4/3
f 1/2/13 2/2/13 3/1/13
f 12/1/11 6/2/11 5/5/11
f 6/7/9 7/7/9 8/6/8
f 10/1/6 12/1/6 9/4/5
f 7/2/3 10/1/3 11/4/3
f 6/2/1 12/1/1 10/1/1

